<svg width="40" height="40" viewBox="0 0 40 40" fill="none" xmlns="http://www.w3.org/2000/svg">
<g clip-path="url(#clip0_3001_310)">
<path fill-rule="evenodd" clip-rule="evenodd" d="M30.9239 21.2513C30.8737 16.1872 35.0541 13.7571 35.2409 13.6368C32.8912 10.1997 29.2304 9.72729 27.9261 9.67416C24.8109 9.35966 21.8484 11.5093 20.2657 11.5093C18.6874 11.5093 16.2484 9.72135 13.6655 9.76866C10.2705 9.81885 7.14049 11.7433 5.39031 14.784C1.86312 20.9036 4.48812 29.9738 7.92599 34.936C9.60537 37.3662 11.6081 40.096 14.2383 39.9985C16.7703 39.8989 17.7285 38.3583 20.7913 38.3583C23.8534 38.3583 24.7134 39.9986 27.3938 39.9462C30.1192 39.896 31.8458 37.4688 33.5141 35.0305C35.4446 32.2105 36.2359 29.4837 36.2839 29.3434C36.2233 29.3161 30.9696 27.3038 30.9164 21.2535L30.9238 21.2513H30.9239ZM25.8894 6.38616C27.2846 4.69347 28.2272 2.34379 27.9696 -0.00146484C25.9595 0.0804727 23.5219 1.33835 22.0788 3.02885C20.7832 4.5296 19.6516 6.92135 19.9542 9.2186C22.1991 9.3936 24.4912 8.0781 25.8871 6.3891L25.8894 6.38616Z" fill="white"/>
</g>
<defs>
<clipPath id="clip0_3001_310">
<rect width="40" height="40" fill="white"/>
</clipPath>
</defs>
</svg>
