<svg width="48" height="48" viewBox="0 0 48 48" fill="none" xmlns="http://www.w3.org/2000/svg">
<path d="M8.37878 24.8357C6.37859 24.8357 4.75671 26.4571 4.75671 28.4578C4.75671 28.612 4.76932 28.7638 4.78872 28.9127C5.01329 30.698 6.53283 32.0789 8.3783 32.0789C10.2737 32.0789 11.8277 30.6219 11.9853 28.7662C11.9936 28.6649 12.0004 28.5616 12.0004 28.4573C12.0009 26.4571 10.3795 24.8357 8.37878 24.8357ZM6.56581 27.0929L7.304 27.8316C7.24677 27.9301 7.20166 28.0363 7.17256 28.1498H6.13172C6.18507 27.756 6.33591 27.3961 6.56581 27.0929ZM6.12687 28.7769H7.17595C7.20554 28.8885 7.24919 28.9942 7.30739 29.0912L6.56726 29.8308C6.33785 29.5301 6.18362 29.1702 6.12687 28.7769ZM8.06547 30.7077C7.67309 30.6529 7.31661 30.4992 7.01493 30.2717L7.75118 29.535C7.84818 29.5917 7.9544 29.6334 8.06547 29.6625V30.7077ZM8.06547 27.253C7.95149 27.2831 7.84479 27.3277 7.74536 27.3864L7.00766 26.6487C7.31079 26.4183 7.67067 26.266 8.06547 26.2112V27.253ZM8.69259 26.2102C9.08739 26.265 9.44775 26.4183 9.7504 26.6482L9.01318 27.3859C8.91424 27.3272 8.80657 27.2826 8.69307 27.2525L8.69259 26.2102ZM8.69259 30.7068V29.663C8.80414 29.6334 8.90939 29.5922 9.00639 29.535L9.74312 30.2717C9.44145 30.4992 9.08448 30.652 8.69259 30.7068ZM10.1922 29.8342L9.44969 29.0907C9.50789 28.9932 9.55494 28.8889 9.58453 28.7774H10.6254C10.5701 29.1693 10.4221 29.5321 10.1922 29.8342ZM9.58598 28.1498C9.5564 28.0363 9.51177 27.9301 9.45454 27.8316L10.1937 27.0929C10.4221 27.3961 10.573 27.756 10.6273 28.1503H9.58598V28.1498Z" fill="#4283F0"/>
<path d="M38.4542 24.8357C36.454 24.8357 34.8322 26.4571 34.8322 28.4578C34.8322 28.612 34.8448 28.7638 34.8642 28.9127C35.0887 30.698 36.6083 32.0789 38.4533 32.0789C40.3487 32.0789 41.9027 30.6219 42.0608 28.7662C42.069 28.6649 42.0758 28.5616 42.0758 28.4573C42.0768 26.4571 40.4549 24.8357 38.4542 24.8357ZM36.6412 27.0929L37.379 27.8316C37.3217 27.9301 37.2766 28.0363 37.2475 28.1498H36.2067C36.2605 27.756 36.4114 27.3961 36.6412 27.0929ZM36.2028 28.7769H37.2519C37.2815 28.8885 37.3251 28.9942 37.3833 29.0912L36.6437 29.8308C36.4133 29.5301 36.2586 29.1702 36.2028 28.7769ZM38.1409 30.7077C37.7485 30.6529 37.392 30.4992 37.0904 30.2717L37.8266 29.535C37.9236 29.5917 38.0298 29.6334 38.1409 29.6625V30.7077ZM38.1409 27.253C38.0269 27.2831 37.9202 27.3277 37.8208 27.3864L37.0831 26.6487C37.3862 26.4183 37.7456 26.266 38.1409 26.2112V27.253ZM38.7685 26.2102C39.1633 26.265 39.5237 26.4183 39.8263 26.6482L39.0886 27.3859C38.9897 27.3272 38.882 27.2816 38.7685 27.2525V26.2102ZM38.7685 30.7068V29.663C38.8801 29.6334 38.9853 29.5922 39.0823 29.535L39.819 30.2717C39.5174 30.4992 39.1599 30.652 38.7685 30.7068ZM40.2677 29.8342L39.5251 29.0917C39.5833 28.9937 39.6309 28.8899 39.66 28.7779H40.7008C40.6455 29.1693 40.4981 29.5321 40.2677 29.8342ZM39.6614 28.1498C39.6318 28.0363 39.5877 27.9301 39.53 27.8316L40.2687 27.0929C40.4976 27.3961 40.6479 27.756 40.7027 28.1503H39.6614V28.1498Z" fill="#4283F0"/>
<path d="M47.1512 22.9608V20.2806C47.1512 19.8494 46.8379 19.4842 46.4121 19.4178C45.3901 19.2577 43.5786 18.9556 42.7648 18.7048C41.5978 18.3449 37.0892 16.4359 35.5279 16.0775C33.9662 15.7191 26.9248 13.8052 20.1807 16.143C19.0394 16.5383 13.9056 18.9924 10.8869 20.2685C9.99784 20.2879 1.19826 22.1222 0.72974 23.3794C0.261219 24.637 0.11426 25.2471 0.0279277 25.5663C-0.0584045 25.8854 0.0279276 27.4127 0.681724 28.4764C1.34813 28.8532 2.63099 29.1064 4.11416 29.2761C4.09718 29.1854 4.07875 29.0962 4.06711 29.0045C4.0414 28.8086 4.02928 28.6296 4.02928 28.4589C4.02928 26.0605 5.98 24.1088 8.37887 24.1088C10.7777 24.1088 12.7285 26.06 12.7285 28.4589C12.7285 28.5821 12.7202 28.7043 12.711 28.8246C12.6882 29.0938 12.6397 29.3552 12.5694 29.6069C12.5728 29.6069 12.581 29.6069 12.581 29.6069L34.1718 29.1723C34.1621 29.1166 34.1495 29.0613 34.1422 29.0045C34.1165 28.8096 34.1044 28.6301 34.1044 28.4589C34.1044 26.0605 36.0551 24.1093 38.454 24.1093C40.8529 24.1093 42.8041 26.06 42.8041 28.4589C42.8041 28.4681 42.8031 28.4759 42.8026 28.4846L42.8948 28.4768L46.5862 27.7818C46.5862 27.7818 48 27.0291 48 24.9581C48.0005 23.5768 47.1512 22.9608 47.1512 22.9608ZM25.7336 20.4198L17.6702 20.6667C17.8187 19.4585 17.1033 19.1874 17.1033 19.1874C20.3087 16.2778 26.7691 16.1794 26.7691 16.1794L25.7336 20.4198ZM34.7829 20.0507L27.435 20.2976L28.1009 16.1798C31.8986 16.1304 34.068 16.9685 34.068 16.9685L35.153 18.7194L34.7829 20.0507ZM38.9254 20.0255H36.8782L34.8314 17.2149C36.367 17.826 37.596 18.4284 38.3279 18.8091C38.7722 19.04 39.0147 19.5332 38.9254 20.0255Z" fill="#4283F0"/>
</svg>
