<svg width="48" height="48" viewBox="0 0 48 48" fill="none" xmlns="http://www.w3.org/2000/svg">
<path d="M7.30423 25.3872C4.47907 25.3872 2.18774 27.6776 2.18774 30.5037C2.18774 30.7222 2.20567 30.9353 2.23328 31.147C2.55058 33.6684 4.69706 35.6197 7.30423 35.6197C9.98116 35.6197 12.1766 33.5609 12.3984 30.9402C12.4101 30.7958 12.4202 30.651 12.4202 30.5037C12.4202 27.6776 10.1299 25.3872 7.30423 25.3872ZM5.38058 29.0548L6.1639 29.8386C6.10286 29.9432 6.0549 30.0561 6.02487 30.1762H4.92038C4.97706 29.7586 5.1374 29.376 5.38058 29.0548ZM4.91554 30.8423H6.02874C6.05975 30.961 6.10625 31.0724 6.16777 31.1756L5.38252 31.9608C5.13934 31.6397 4.97512 31.2589 4.91554 30.8423ZM6.97192 32.8895C6.5558 32.8314 6.17698 32.6681 5.85726 32.4264L6.63766 31.646C6.74085 31.7065 6.85323 31.7501 6.97143 31.7802L6.97192 32.8895ZM6.97192 29.2253C6.85033 29.2558 6.73794 29.3047 6.63234 29.3668L5.84999 28.5834C6.17165 28.3393 6.55337 28.1775 6.97192 28.1194V29.2253ZM7.63752 28.1198C8.05606 28.178 8.43827 28.3398 8.75944 28.5844L7.97661 29.3672C7.87198 29.3052 7.75814 29.2563 7.63752 29.2258V28.1198ZM7.63752 32.8885V31.7802C7.75572 31.7501 7.86762 31.7051 7.9708 31.645L8.75169 32.4259C8.43197 32.6676 8.05267 32.8304 7.63752 32.8885ZM9.22788 31.9628L8.44021 31.1746C8.50221 31.071 8.55162 30.9615 8.58311 30.8418H9.6876C9.62801 31.2579 9.47155 31.6435 9.22788 31.9628ZM8.58457 30.1767C8.55405 30.0561 8.50609 29.9437 8.44554 29.8391L9.22933 29.0553C9.47155 29.3769 9.63189 29.7586 9.68905 30.1767H8.58457Z" fill="#4283F0"/>
<path d="M38.8925 25.3872C36.0678 25.3872 33.776 27.6776 33.776 30.5037C33.776 30.7222 33.7939 30.9353 33.822 31.147C34.1393 33.6684 36.2853 35.6197 38.8925 35.6197C41.5699 35.6197 43.7658 33.5609 43.9872 30.9402C43.9983 30.7958 44.009 30.651 44.009 30.5037C44.009 27.6776 41.7186 25.3872 38.8925 25.3872ZM36.9688 29.0548L37.7526 29.8386C37.6911 29.9432 37.6432 30.0561 37.6126 30.1762H36.5091C36.5658 29.7586 36.7257 29.376 36.9688 29.0548ZM36.5043 30.8423H37.6175C37.6475 30.961 37.695 31.0724 37.7565 31.1756L36.9708 31.9608C36.7276 31.6397 36.5639 31.2589 36.5043 30.8423ZM38.5602 32.8895C38.1445 32.8314 37.7652 32.6681 37.4455 32.4264L38.2264 31.646C38.3291 31.7065 38.4415 31.7501 38.5597 31.7802L38.5602 32.8895ZM38.5602 29.2253C38.4391 29.2558 38.3267 29.3047 38.2211 29.3668L37.4387 28.5834C37.7604 28.3393 38.1421 28.1775 38.5602 28.1194V29.2253ZM39.2263 28.1198C39.6453 28.178 40.0265 28.3398 40.3477 28.5844L39.5658 29.3672C39.4602 29.3052 39.3464 29.2563 39.2263 29.2258V28.1198ZM39.2263 32.8885V31.7802C39.3445 31.7501 39.4568 31.7051 39.5595 31.645L40.3409 32.4259C40.0207 32.6676 39.6414 32.8304 39.2263 32.8885ZM40.8166 31.9628L40.0285 31.1746C40.091 31.071 40.1399 30.9615 40.1723 30.8418H41.2759C41.2168 31.2579 41.0608 31.6435 40.8166 31.9628ZM40.1733 30.1767C40.1428 30.0561 40.0948 29.9437 40.0343 29.8391L40.8186 29.0553C41.0608 29.3769 41.2206 29.7586 41.2773 30.1767H40.1733Z" fill="#4283F0"/>
<path d="M36.7746 13.0005L23.0484 13.1735C22.6366 13.1783 22.3072 13.5164 22.3126 13.9282C22.3169 14.3336 22.6458 14.6592 23.0489 14.664C23.0557 14.664 23.061 14.664 23.0673 14.664L36.7935 14.4911C37.2052 14.4862 37.5346 14.1481 37.5298 13.7364C37.524 13.3246 37.1747 12.985 36.7746 13.0005Z" fill="#4283F0"/>
<path d="M31.3456 30.3638H15.1397C14.7279 30.3638 14.3947 30.6975 14.3947 31.1093C14.3947 31.5215 14.7279 31.8548 15.1397 31.8548H31.3456C31.7574 31.8548 32.0907 31.5215 32.0907 31.1093C32.0907 30.6975 31.7574 30.3638 31.3456 30.3638Z" fill="#4283F0"/>
<path d="M47.7923 26.1095C47.6194 25.8983 47.3588 25.7762 47.086 25.7762H46.2388L45.378 16.3503C45.3305 15.83 44.8906 15.4343 44.3674 15.442L20.1327 15.8053C19.7558 15.8111 19.4012 15.9875 19.1696 16.2854L15.9574 20.4141L5.43863 21.0657C4.86653 21.1015 4.34286 21.3995 4.0212 21.8737L3.42875 22.7452C3.42875 22.7452 2.41437 23.1022 2.14261 23.327C1.90669 23.5222 1.43729 24.3293 1.43729 24.3293C1.34815 24.4552 1.3375 24.6214 1.40871 24.7575C1.47943 24.8946 1.62088 24.9803 1.77541 24.9803V25.8988H0.90006C0.402557 25.8993 0 26.3023 0 26.7988V28.4575C0 29.0737 0.499441 29.5741 1.1166 29.5741H1.71486L3.25678 25.3199C3.39727 24.9324 3.76543 24.6742 4.17719 24.6742H9.55914C9.86433 24.6742 10.1526 24.8166 10.3376 25.0598L13.963 29.8187H32.8866L35.5422 25.3378C35.718 25.0404 36.0378 24.8582 36.3841 24.8582H41.3257C41.6745 24.8582 41.9967 25.0438 42.1725 25.3451L44.7763 29.8192H45.7103C46.6922 29.8192 47.538 29.1241 47.7279 28.1601L47.9817 26.8686C48.0365 26.5997 47.9667 26.3217 47.7923 26.1095ZM24.7386 21.366H19.1541V19.6507H18.023L19.7156 17.416C19.7882 17.3196 19.9016 17.2625 20.0222 17.2605L25.6871 17.1762V19.6507L24.7386 21.366ZM33.9731 21.366H27.9508V17.1423L35.2138 17.0343V20.1249L33.9731 21.366ZM37.0769 21.366V17.0062L43.3293 16.9132C43.4359 16.9117 43.5241 16.9936 43.5323 17.0997L43.8259 21.366H37.0769Z" fill="#4283F0"/>
</svg>
