<svg width="72" height="72" viewBox="0 0 72 72" fill="none" xmlns="http://www.w3.org/2000/svg">
<g clip-path="url(#clip0_2426_12803)">
<path d="M16.9903 4.21523L13.4676 11.8688C13.3677 12.0872 13.2023 12.2745 12.9912 12.4083C12.78 12.5422 12.5319 12.6171 12.2762 12.624L3.42097 13.3624L10.1784 18.8374C10.3602 18.985 10.4955 19.1755 10.57 19.3887C10.6444 19.6019 10.6553 19.8299 10.6013 20.0483L8.60345 28.1618L16.3037 23.8906C16.5155 23.7736 16.758 23.7131 17.0046 23.7155C17.2511 23.718 17.4921 23.7834 17.7012 23.9047L21.3816 25.9467L20.7555 28.4895L16.9903 26.401L8.9536 30.8578C8.72471 30.99 8.46854 31.0814 8.20177 31.1265C7.92134 31.1715 7.63183 31.1672 7.34686 31.1082C6.7648 30.9858 6.29187 30.6553 5.99932 30.225C5.70526 29.7904 5.58854 29.2503 5.72193 28.7145L7.81524 20.2157L0.816839 14.5466C0.744081 14.4959 0.677386 14.4383 0.616754 14.375C0.495491 14.2611 0.38787 14.1317 0.299954 13.9924L0.23326 13.8856C0.122607 13.683 0.0468175 13.4594 0.0165017 13.2217L0.00437537 13.105C-0.0320036 12.5776 0.160502 12.0798 0.506102 11.6972C0.84867 11.3161 1.34585 11.0545 1.91124 10.994L11.3182 10.2149L15.0061 2.20269C15.1168 1.9636 15.2699 1.74561 15.4639 1.567C15.6261 1.41933 15.8186 1.28995 16.0369 1.19009L16.146 1.14227C16.6932 0.925691 17.2844 0.934129 17.7982 1.1268C18.306 1.31807 18.7395 1.69077 18.9715 2.19707L22.0121 8.80427L19.2109 9.03633L16.9903 4.21523ZM32.7272 52.0844C32.7272 52.7384 32.1543 53.27 31.4494 53.27C30.7446 53.27 30.1716 52.7384 30.1716 52.0844V49.8933C30.1034 49.8595 30.0382 49.8202 29.9761 49.7737L27.516 47.9229L24.1994 45.3985C23.5825 44.9259 22.8837 44.5996 22.2289 44.4787C21.809 44.4013 21.421 44.4098 21.1178 44.5251C20.8723 44.6179 20.66 44.8022 20.5176 45.0961C20.3311 45.4772 20.2447 46.0243 20.2963 46.7584C20.3417 47.411 20.5873 48.1283 20.9117 48.8118C21.3922 49.8244 22.047 50.7526 22.529 51.3503L32.3104 65.0809C32.4207 65.2352 32.4898 65.4116 32.512 65.5956C32.706 67.0779 33.0456 68.189 33.5458 68.8851C33.9096 69.39 34.381 69.646 34.9676 69.6319C39.9257 69.6319 45.3053 69.4421 50.2104 69.6319C51.1517 69.6179 52.0142 69.3605 52.7933 68.8626C53.6633 68.3057 54.4591 67.4408 55.1776 66.2749L55.361 65.9838C57.2467 62.9685 59.0762 60.0418 59.2687 56.5666L59.1717 52.5373L59.1581 52.3601L59.1717 51.4108C59.2066 48.4616 59.2611 43.9471 56.6176 43.5055H54.9048C54.9563 44.7656 54.8775 46.0679 54.8062 47.2507C54.7638 47.9483 54.7244 48.5966 54.7244 49.1985C54.7244 49.8525 54.1514 50.3841 53.4451 50.3841C52.7402 50.3841 52.1672 49.8525 52.1672 49.1985C52.1672 48.6402 52.2127 47.9075 52.2612 47.1199C52.4401 44.1819 52.6781 40.2525 50.4665 39.8629H48.7901C48.6794 39.8629 48.5703 39.8503 48.4672 39.825C48.5718 41.2398 48.4808 42.739 48.399 44.0807C48.3565 44.7797 48.3171 45.428 48.3171 46.0299C48.3171 46.6839 47.7442 47.2155 47.0393 47.2155C46.333 47.2155 45.76 46.6839 45.76 46.0299C45.76 45.4716 45.8055 44.7389 45.854 43.9513C46.0328 41.0134 46.2708 37.0839 44.0593 36.6957H42.3828C42.2676 36.6957 42.1555 36.6817 42.0494 36.655V42.7727C42.0494 43.4281 41.4764 43.9583 40.7715 43.9583C40.0652 43.9583 39.4937 43.4281 39.4937 42.7727V30.4626C39.4937 28.4009 38.5858 27.0986 37.4277 26.5557C37.0033 26.3574 36.5455 26.2561 36.0938 26.2561C35.6451 26.2561 35.1904 26.3546 34.7675 26.5529C33.6231 27.0929 32.7272 28.4009 32.7272 30.5119V52.0844ZM30.1716 46.8752V32.2741L24.8209 35.2415C24.584 35.3725 24.3008 35.411 24.0334 35.3485C23.766 35.286 23.5363 35.1277 23.3945 34.9082C23.2562 34.6946 23.2127 34.4394 23.2733 34.1966H23.2717L26.1745 22.4167L16.3628 14.4678C15.9308 14.1176 15.8868 13.5086 16.2658 13.1064C16.3571 13.0091 16.4685 12.9298 16.5935 12.8733C16.7185 12.8168 16.8545 12.7841 16.9933 12.7773L29.9261 11.7014L35.0419 0.589565C35.2677 0.0973289 35.8786 -0.131912 36.4076 0.0776395C36.6683 0.180306 36.8608 0.370168 36.9608 0.59519L42.0736 11.7014L55.0412 12.7815C55.6126 12.8265 56.0371 13.2949 55.987 13.8251C55.9644 14.0736 55.8383 14.3042 55.6354 14.4678L45.8267 22.4167L48.7279 34.1966C48.7743 34.3845 48.7591 34.5809 48.6843 34.7607C48.6095 34.9405 48.4785 35.0954 48.3081 35.2056C48.1376 35.3158 47.9356 35.3763 47.7279 35.3792C47.5202 35.382 47.3163 35.3273 47.1424 35.2219L42.0494 32.3964V34.364C42.1555 34.3372 42.2676 34.3246 42.3828 34.3246H44.1442C44.2457 34.3246 44.3427 34.3344 44.4367 34.3555C46.5528 34.6691 47.6077 35.9771 48.1064 37.676C48.3035 37.5593 48.54 37.4918 48.7901 37.4918H50.5514C50.653 37.4918 50.75 37.503 50.844 37.5227C53.0964 37.8574 54.1454 39.3173 54.6031 41.1765C54.7107 41.1498 54.8244 41.1343 54.9411 41.1343H56.704C56.804 41.1343 56.9026 41.1456 56.9965 41.1667C61.8319 41.8839 61.7622 47.6642 61.7167 51.4333C61.7107 53.1772 61.7955 54.9127 61.8152 56.6552C61.6 60.7211 59.6128 63.8981 57.5665 67.1708L57.3937 67.452C56.4872 68.9203 55.4368 70.0426 54.2393 70.8077C53.0282 71.5798 51.6883 71.9778 50.2225 71.9933L34.9979 71.9989C33.4776 72.0228 32.2983 71.4054 31.4312 70.2001C30.7325 69.2283 30.2686 67.8683 30.0185 66.1553L20.4781 52.7595C19.9158 52.0605 19.1488 50.972 18.5758 49.7653C18.1453 48.8582 17.8179 47.8737 17.7497 46.9075C17.6694 45.7641 17.8422 44.8415 18.1923 44.1229C18.6274 43.2298 19.3216 42.6462 20.1598 42.3297C20.942 42.0344 21.8272 41.9908 22.7185 42.1553C23.7856 42.3522 24.8876 42.8557 25.8259 43.5744L30.1716 46.8752ZM51.8398 55.7734C51.8398 55.239 52.3082 54.8044 52.8842 54.8044C53.4587 54.8044 53.9271 55.239 53.9271 55.7734V60.2007C53.9224 60.4546 53.8104 60.6967 53.6152 60.8748C53.42 61.0529 53.1572 61.1526 52.8835 61.1526C52.6097 61.1526 52.3469 61.0529 52.1517 60.8748C51.9565 60.6967 51.8445 60.4546 51.8398 60.2007V55.7734ZM45.6736 53.8157C45.6736 53.2827 46.1405 52.8481 46.7165 52.8481C47.2925 52.8481 47.7593 53.2827 47.7593 53.8157V60.1993C47.7593 60.7337 47.2925 61.1683 46.7165 61.1683C46.1405 61.1683 45.6736 60.7337 45.6736 60.1993V53.8157ZM56.992 2.20269L60.6814 10.2149L70.0884 10.994C70.6538 11.0545 71.1495 11.3161 71.4936 11.6972C71.8392 12.0783 72.0317 12.5776 71.9953 13.105L71.9832 13.2217C71.9529 13.4594 71.8771 13.683 71.7664 13.8856L71.6982 13.9938C71.6118 14.1317 71.5057 14.2597 71.3859 14.3722C71.3253 14.4354 71.2571 14.4945 71.1828 14.5466L64.1844 20.2157L66.2777 28.7145C66.4111 29.2503 66.2929 29.7918 66.0003 30.225C65.8494 30.4472 65.6526 30.6396 65.4214 30.7911C65.1902 30.9427 64.929 31.0504 64.6528 31.1082C64.3678 31.1672 64.0768 31.1715 63.7979 31.1265C63.5315 31.0809 63.2766 30.9899 63.0461 30.8578L55.0093 26.401L51.2578 28.4824L50.6227 25.9439L54.2984 23.9047C54.5075 23.7834 54.7486 23.718 54.9951 23.7155C55.2416 23.7131 55.4841 23.7736 55.696 23.8906L63.3962 28.1618L61.3969 20.0483C61.2923 19.6166 61.4393 19.1468 61.8213 18.8374L68.5787 13.3624L59.7235 12.624C59.4678 12.6171 59.2197 12.5422 59.0085 12.4083C58.7973 12.2745 58.632 12.0872 58.532 11.8688L55.0093 4.21523L52.7887 9.03914L49.986 8.80568L53.0282 2.19707C53.2601 1.69077 53.6921 1.31948 54.2029 1.12821C54.7153 0.934129 55.3064 0.925691 55.8536 1.14227L55.9598 1.18869C56.178 1.28854 56.3736 1.41933 56.5342 1.56841C56.7298 1.74561 56.8813 1.9636 56.992 2.20269Z" fill="#4283F0"/>
</g>
<defs>
<clipPath id="clip0_2426_12803">
<rect width="72" height="72" fill="white"/>
</clipPath>
</defs>
</svg>
