<svg width="96" height="40" viewBox="0 0 96 40" fill="none" xmlns="http://www.w3.org/2000/svg">
<rect width="40" height="40" fill="white"/>
<path d="M38.2213 35.7009C38.5292 36.2455 38.4366 36.9283 37.9945 37.3704C37.7266 37.6384 37.3707 37.7778 37.0102 37.7778C36.7758 37.7778 36.5397 37.7187 36.325 37.5972C32.0687 35.1854 27.2163 33.9111 22.2934 33.9111H20.9023V31.4076C22.4665 29.4956 24.0306 27.5831 25.596 25.671C25.9352 25.2567 26.2557 24.8239 26.6214 24.4339C28.8147 22.1005 29.6769 19.3547 29.1058 16.206C28.3599 12.0927 24.8941 9.11244 20.9023 8.73446V6.08933H22.2934C27.217 6.08933 32.0687 4.81502 36.325 2.40302C36.869 2.0946 37.5519 2.18777 37.9945 2.62986C38.4366 3.07209 38.5292 3.75485 38.2213 4.2989C35.913 8.37339 34.5345 14.7656 34.5345 20.0004C34.5345 25.2347 35.913 31.627 38.2213 35.7009Z" fill="#4283F0"/>
<path d="M10.8244 17.1735C10.6225 19.6688 11.3337 21.8963 12.9164 23.839C13.1317 24.1034 13.3799 24.3406 13.5964 24.6039C15.4546 26.8713 17.3104 29.1403 19.1663 31.4094V33.9111H17.7751C12.8522 33.9111 7.99983 35.1852 3.74362 37.5972C3.52893 37.7187 3.29273 37.7778 3.05849 37.7778C2.69783 37.7778 2.34206 37.6383 2.07402 37.3704C1.63193 36.9283 1.53932 36.2454 1.84718 35.7009C4.15568 31.6269 5.53405 25.2347 5.53405 20.0004C5.53405 14.7656 4.15568 8.37339 1.84718 4.2989C1.53932 3.75485 1.63193 3.07195 2.07402 2.62986C2.51681 2.18777 3.19956 2.0946 3.74362 2.40302C7.99983 4.81502 12.8516 6.08933 17.7751 6.08933H19.1663V8.73558C18.903 8.76058 18.639 8.7976 18.3746 8.84677C14.2543 9.61012 11.163 13.0024 10.8244 17.1735Z" fill="#4283F0"/>
<path d="M23.9931 17.9543C23.9896 19.8402 22.6691 21.4137 20.9023 21.8083C20.6217 21.8708 20.33 21.9033 20.0308 21.9033C19.734 21.9033 19.4446 21.8702 19.1663 21.8083C17.3932 21.4137 16.072 19.8327 16.0738 17.9375C16.0755 16.0475 17.3955 14.4729 19.1663 14.0788C19.4481 14.0151 19.741 13.9822 20.0418 13.9827C20.3375 13.9833 20.6257 14.0157 20.9023 14.0781C22.6761 14.4729 23.9972 16.0573 23.9931 17.9543Z" fill="#4283F0"/>
<path d="M48.592 10.416C48.592 9.328 48.8427 8.352 49.344 7.488C49.856 6.624 50.544 5.952 51.408 5.472C52.2827 4.98133 53.2373 4.736 54.272 4.736C55.456 4.736 56.5067 5.02933 57.424 5.616C58.352 6.192 59.024 7.01333 59.44 8.08H57.248C56.96 7.49333 56.56 7.056 56.048 6.768C55.536 6.48 54.944 6.336 54.272 6.336C53.536 6.336 52.88 6.50133 52.304 6.832C51.728 7.16267 51.2747 7.63733 50.944 8.256C50.624 8.87467 50.464 9.59467 50.464 10.416C50.464 11.2373 50.624 11.9573 50.944 12.576C51.2747 13.1947 51.728 13.6747 52.304 14.016C52.88 14.3467 53.536 14.512 54.272 14.512C54.944 14.512 55.536 14.368 56.048 14.08C56.56 13.792 56.96 13.3547 57.248 12.768H59.44C59.024 13.8347 58.352 14.656 57.424 15.232C56.5067 15.808 55.456 16.096 54.272 16.096C53.2267 16.096 52.272 15.856 51.408 15.376C50.544 14.8853 49.856 14.208 49.344 13.344C48.8427 12.48 48.592 11.504 48.592 10.416ZM63.399 4.16V16H61.575V4.16H63.399ZM73.8738 11.376C73.8738 11.7067 73.8524 12.0053 73.8098 12.272H67.0738C67.1271 12.976 67.3884 13.5413 67.8578 13.968C68.3271 14.3947 68.9031 14.608 69.5858 14.608C70.5671 14.608 71.2604 14.1973 71.6658 13.376H73.6337C73.3671 14.1867 72.8818 14.8533 72.1778 15.376C71.4844 15.888 70.6204 16.144 69.5858 16.144C68.7431 16.144 67.9858 15.9573 67.3138 15.584C66.6524 15.2 66.1298 14.6667 65.7458 13.984C65.3724 13.2907 65.1858 12.4907 65.1858 11.584C65.1858 10.6773 65.3671 9.88267 65.7298 9.2C66.1031 8.50667 66.6204 7.97333 67.2818 7.6C67.9538 7.22667 68.7218 7.04 69.5858 7.04C70.4178 7.04 71.1591 7.22133 71.8098 7.584C72.4604 7.94667 72.9671 8.45867 73.3298 9.12C73.6924 9.77067 73.8738 10.5227 73.8738 11.376ZM71.9698 10.8C71.9591 10.128 71.7191 9.58933 71.2498 9.184C70.7804 8.77867 70.1991 8.576 69.5058 8.576C68.8764 8.576 68.3378 8.77867 67.8898 9.184C67.4418 9.57867 67.1751 10.1173 67.0898 10.8H71.9698ZM75.0608 11.552C75.0608 10.6667 75.2421 9.88267 75.6048 9.2C75.9781 8.51733 76.4794 7.98933 77.1088 7.616C77.7488 7.232 78.4528 7.04 79.2208 7.04C79.9141 7.04 80.5168 7.17867 81.0288 7.456C81.5514 7.72267 81.9674 8.05867 82.2768 8.464V7.184H84.1168V16H82.2768V14.688C81.9674 15.104 81.5461 15.4507 81.0128 15.728C80.4794 16.0053 79.8714 16.144 79.1888 16.144C78.4314 16.144 77.7381 15.952 77.1088 15.568C76.4794 15.1733 75.9781 14.6293 75.6048 13.936C75.2421 13.232 75.0608 12.4373 75.0608 11.552ZM82.2768 11.584C82.2768 10.976 82.1488 10.448 81.8928 10C81.6474 9.552 81.3221 9.21067 80.9168 8.976C80.5114 8.74133 80.0741 8.624 79.6048 8.624C79.1354 8.624 78.6981 8.74133 78.2928 8.976C77.8874 9.2 77.5568 9.536 77.3008 9.984C77.0554 10.4213 76.9328 10.944 76.9328 11.552C76.9328 12.16 77.0554 12.6933 77.3008 13.152C77.5568 13.6107 77.8874 13.9627 78.2928 14.208C78.7088 14.4427 79.1461 14.56 79.6048 14.56C80.0741 14.56 80.5114 14.4427 80.9168 14.208C81.3221 13.9733 81.6474 13.632 81.8928 13.184C82.1488 12.7253 82.2768 12.192 82.2768 11.584ZM90.9605 7.04C91.6538 7.04 92.2725 7.184 92.8165 7.472C93.3712 7.76 93.8032 8.18667 94.1125 8.752C94.4218 9.31733 94.5765 10 94.5765 10.8V16H92.7685V11.072C92.7685 10.2827 92.5712 9.68 92.1765 9.264C91.7818 8.83733 91.2432 8.624 90.5605 8.624C89.8778 8.624 89.3338 8.83733 88.9285 9.264C88.5338 9.68 88.3365 10.2827 88.3365 11.072V16H86.5125V7.184H88.3365V8.192C88.6352 7.82933 89.0138 7.54667 89.4725 7.344C89.9418 7.14133 90.4378 7.04 90.9605 7.04ZM48.592 30.416C48.592 29.328 48.8427 28.352 49.344 27.488C49.856 26.624 50.544 25.952 51.408 25.472C52.2827 24.9813 53.2373 24.736 54.272 24.736C55.456 24.736 56.5067 25.0293 57.424 25.616C58.352 26.192 59.024 27.0133 59.44 28.08H57.248C56.96 27.4933 56.56 27.056 56.048 26.768C55.536 26.48 54.944 26.336 54.272 26.336C53.536 26.336 52.88 26.5013 52.304 26.832C51.728 27.1627 51.2747 27.6373 50.944 28.256C50.624 28.8747 50.464 29.5947 50.464 30.416C50.464 31.2373 50.624 31.9573 50.944 32.576C51.2747 33.1947 51.728 33.6747 52.304 34.016C52.88 34.3467 53.536 34.512 54.272 34.512C54.944 34.512 55.536 34.368 56.048 34.08C56.56 33.792 56.96 33.3547 57.248 32.768H59.44C59.024 33.8347 58.352 34.656 57.424 35.232C56.5067 35.808 55.456 36.096 54.272 36.096C53.2267 36.096 52.272 35.856 51.408 35.376C50.544 34.8853 49.856 34.208 49.344 33.344C48.8427 32.48 48.592 31.504 48.592 30.416ZM60.967 31.552C60.967 30.6667 61.1483 29.8827 61.511 29.2C61.8843 28.5173 62.3857 27.9893 63.015 27.616C63.655 27.232 64.359 27.04 65.127 27.04C65.8203 27.04 66.423 27.1787 66.935 27.456C67.4577 27.7227 67.8737 28.0587 68.183 28.464V27.184H70.023V36H68.183V34.688C67.8737 35.104 67.4523 35.4507 66.919 35.728C66.3857 36.0053 65.7777 36.144 65.095 36.144C64.3377 36.144 63.6443 35.952 63.015 35.568C62.3857 35.1733 61.8843 34.6293 61.511 33.936C61.1483 33.232 60.967 32.4373 60.967 31.552ZM68.183 31.584C68.183 30.976 68.055 30.448 67.799 30C67.5537 29.552 67.2283 29.2107 66.823 28.976C66.4177 28.7413 65.9803 28.624 65.511 28.624C65.0417 28.624 64.6043 28.7413 64.199 28.976C63.7937 29.2 63.463 29.536 63.207 29.984C62.9617 30.4213 62.839 30.944 62.839 31.552C62.839 32.16 62.9617 32.6933 63.207 33.152C63.463 33.6107 63.7937 33.9627 64.199 34.208C64.615 34.4427 65.0523 34.56 65.511 34.56C65.9803 34.56 66.4177 34.4427 66.823 34.208C67.2283 33.9733 67.5537 33.632 67.799 33.184C68.055 32.7253 68.183 32.192 68.183 31.584ZM74.2428 28.464C74.5094 28.016 74.8614 27.6693 75.2988 27.424C75.7468 27.168 76.2748 27.04 76.8828 27.04V28.928H76.4188C75.7041 28.928 75.1601 29.1093 74.7868 29.472C74.4241 29.8347 74.2428 30.464 74.2428 31.36V36H72.4188V27.184H74.2428V28.464Z" fill="#4283F0"/>
</svg>
