<svg width="88" height="88" viewBox="0 0 88 88" fill="none" xmlns="http://www.w3.org/2000/svg">
<g opacity="0.12">
<path d="M118.486 110.673C119.441 112.361 119.154 114.478 117.783 115.848C116.953 116.679 115.849 117.111 114.732 117.111C114.005 117.111 113.273 116.928 112.608 116.551C99.413 109.074 84.3707 105.124 69.1097 105.124H64.7974V97.3632C69.6462 91.4362 74.4951 85.5074 79.3478 79.58C80.3991 78.2956 81.3929 76.9537 82.5265 75.7448C89.3256 68.5114 91.9986 59.9992 90.228 50.2383C87.9158 37.4871 77.1719 28.2484 64.7974 27.0766V18.8767H69.1097C84.3729 18.8767 99.413 14.9264 112.608 7.44917C114.294 6.49308 116.411 6.78191 117.783 8.15238C119.154 9.52329 119.441 11.6398 118.486 13.3264C111.33 25.9573 107.057 45.7731 107.057 62.0011C107.057 78.2272 111.33 98.0435 118.486 110.673Z" fill="#4283F0"/>
<path d="M33.5559 53.2378C32.9297 60.9731 35.1346 67.8783 40.041 73.9006C40.7083 74.7203 41.4778 75.4555 42.1489 76.2718C47.9093 83.3008 53.6622 90.3346 59.4156 97.3689V105.124H55.1029C39.8419 105.124 24.7995 109.074 11.6053 116.551C10.9398 116.928 10.2075 117.111 9.48137 117.111C8.36334 117.111 7.26047 116.679 6.42952 115.848C5.05904 114.478 4.77196 112.361 5.72631 110.673C12.8827 98.0431 17.1556 78.2272 17.1556 62.0011C17.1556 45.7731 12.8827 25.9573 5.72631 13.3264C4.77196 11.6398 5.05904 9.52286 6.42952 8.15238C7.80216 6.78191 9.91871 6.49308 11.6053 7.44917C24.7995 14.9264 39.8401 18.8767 55.1029 18.8767H59.4156V27.0801C58.5994 27.1576 57.781 27.2724 56.9613 27.4248C44.1884 29.7912 34.6055 40.3073 33.5559 53.2378Z" fill="#4283F0"/>
<path d="M74.3788 55.6578C74.368 61.5043 70.2743 66.3822 64.7971 67.6055C63.9272 67.799 63.0231 67.8999 62.0956 67.8999C61.1755 67.8999 60.2783 67.7973 59.4157 67.6055C53.9191 66.3822 49.8232 61.481 49.8289 55.6059C49.8341 49.7468 53.926 44.8655 59.4157 43.644C60.2891 43.4465 61.1971 43.3443 62.1298 43.3461C63.0465 43.3478 63.9398 43.4483 64.7971 43.6418C70.2959 44.8655 74.3913 49.7771 74.3788 55.6578Z" fill="#4283F0"/>
</g>
</svg>
