<svg width="62" height="72" viewBox="0 0 62 72" fill="none" xmlns="http://www.w3.org/2000/svg">
<g clip-path="url(#clip0_2426_12801)">
<path fill-rule="evenodd" clip-rule="evenodd" d="M32.9307 1.42969C37.1924 4.2325 41.7877 6.48838 46.6091 8.14453C50.1867 9.39241 53.9783 9.90455 57.7576 9.65039L61.6782 9.29297L61.871 13.2422C62.5897 27.7676 60.2525 40.3887 55.3502 50.3438C50.2493 60.7031 42.408 68.1855 32.3405 71.9824H29.7229C19.8833 68.3789 12.1004 61.1016 6.9352 50.6133C2.11473 40.7695 -0.356856 28.0547 0.0404676 12.8906L0.145642 8.99414L4.00786 9.19336C8.21226 9.46691 12.4327 9.03319 16.4943 7.91016C20.8909 6.62228 24.9965 4.49109 28.5835 1.63477L30.6811 0L32.9307 1.42969ZM30.9265 11.3086C38.8321 16.3359 45.9722 18.7148 52.1015 18.1641C53.1708 39.8438 45.1776 56.4141 31.0083 61.7637C17.3182 56.7539 9.22565 40.7578 9.82748 17.8184C17.0202 18.1992 24.0844 16.6465 30.9265 11.3086ZM26.591 36.0996C27.1365 36.5663 27.6517 37.0673 28.1336 37.5996C29.5902 35.2445 31.2046 32.9912 32.9657 30.8555C37.7804 25.0254 36.343 25.4062 43.0215 25.4062L42.0691 26.4375C39.5617 29.258 37.2576 32.2538 35.1744 35.4023C32.8584 38.7608 30.7585 42.264 28.8873 45.8906L28.303 47.0098L27.7713 45.873C26.8269 43.8059 25.6318 41.8635 24.2129 40.0898C22.9328 38.468 21.4044 37.0599 19.6846 35.918C20.5552 33.0527 24.7037 34.5234 26.5618 36.0996H26.591ZM30.9032 4.63477C41.0583 11.0801 50.2259 14.1387 58.1023 13.4238C59.4754 41.3086 49.2034 61.5703 31.0083 68.4434C13.4385 62.0039 3.04377 42.4512 3.81504 12.9961C13.0528 13.4766 22.1211 11.4785 30.9032 4.63477Z" fill="#4283F0"/>
</g>
<defs>
<clipPath id="clip0_2426_12801">
<rect width="62" height="72" fill="white"/>
</clipPath>
</defs>
</svg>
