<svg width="40" height="40" viewBox="0 0 40 40" fill="none" xmlns="http://www.w3.org/2000/svg">
<path d="M20.375 13.75H12.5C11.75 13.75 11.25 13.25 11.25 12.5C11.25 10.875 10.5 9.5 9.25 8.5C8.875 8.25 8.75 7.875 8.75 7.5C8.75 4 11.625 1.25 15 1.25H30C30.75 1.25 31.25 1.75 31.25 2.5V7.5C31.25 8.25 30.75 8.75 30 8.75H27.125C24.625 8.75 22.25 10.5 21.5 12.875C21.375 13.375 20.875 13.75 20.375 13.75Z" fill="#4283F0"/>
<path d="M30 17.5C29.75 17.5 29.625 17.5 29.5 17.375L29.125 17.125C25.875 15.5 23.5 12.5 22.625 9.00002C22.5 8.37502 22.875 7.62502 23.5 7.50002C24.125 7.37502 24.875 7.75002 25 8.37502C25.75 11.25 27.625 13.625 30.25 14.875L30.625 15.125C31.25 15.375 31.5 16.125 31.125 16.75C30.875 17.25 30.5 17.5 30 17.5Z" fill="#4283F0"/>
<path d="M26.5 24.625L24.5 22.75C23.125 21.5 22.375 19.625 22.375 17.75C22.375 15.75 21.875 13.75 21 11.875C20.875 11.5 20.5 11.25 20 11.25H12.5C12 11.25 11.5 11.625 11.375 12.125L11 13.25C7.875 21.75 8.125 31 11.375 39.25C11.5 39.75 12 40 12.5 40H27.5C28.125 40 28.625 39.5 28.75 38.875L29.5 33.25C29.875 30.125 28.75 27 26.5 24.625ZM20 17.75C20 20.25 21 22.75 22.875 24.5L23.375 25H19C18 22.25 17.5 19.375 17.5 16.5V13.75H19.25C19.75 15 20 16.375 20 17.75ZM11.25 25C11.375 21.25 12 17.625 13.25 14L13.375 13.75H15V16.5C15 19.375 15.5 22.25 16.375 25H11.25ZM23.25 34.75C23.125 34.875 22.75 35 22.5 35C22.125 35 21.75 34.875 21.5 34.5C19.75 32.375 18.25 30 17.25 27.5H20C20.875 29.5 22.125 31.25 23.5 33C23.875 33.5 23.875 34.25 23.25 34.75Z" fill="#4283F0"/>
</svg>
