<svg width="32" height="40" viewBox="0 0 32 40" fill="none" xmlns="http://www.w3.org/2000/svg">
<path d="M13.05 35.5175V37.6025C13.05 38.7683 12.1084 39.6875 10.965 39.6875C9.82152 39.6875 8.87996 38.7683 8.87996 37.6025V35.5175H6.77246V28.7019C6.77246 27.1997 7.78137 25.9667 9.14887 25.5856L11.5926 19.7789C11.9514 18.927 12.7809 18.3216 13.7673 18.3216H26.255C27.2414 18.3216 28.0709 18.9269 28.4296 19.7789L30.8509 25.5856C32.2186 25.9667 33.2273 27.1998 33.2273 28.7019V35.5175H31.0975V37.6025C31.0975 38.7683 30.1559 39.6875 29.0125 39.6875C27.8467 39.6875 26.9275 38.7683 26.9275 37.6025V35.5175H13.05ZM11.0993 31.7734C12.2651 31.7734 13.2068 30.8319 13.2068 29.6659C13.2068 28.5002 12.2653 27.5584 11.0993 27.5584C9.9334 27.5584 8.99184 28.5 8.99184 29.6659C8.99199 30.8317 9.93355 31.7734 11.0993 31.7734ZM30.8734 29.6659C30.8734 28.5002 29.9318 27.5584 28.7659 27.5584C27.6001 27.5584 26.6584 28.5 26.6584 29.6659C26.6584 30.8317 27.6 31.7734 28.7659 31.7734C29.9318 31.7734 30.8734 30.8317 30.8734 29.6659ZM28.7661 25.4734L26.6811 20.4514C26.5914 20.2048 26.3448 20.0255 26.0532 20.0255H13.9467C13.6776 20.0255 13.4311 20.2048 13.3414 20.4514L11.2564 25.4734H28.7661ZM15.4806 11.4862C15.2042 11.692 15.1514 12.0625 15.3512 12.333C15.5453 12.6094 15.9392 12.6622 16.2039 12.4681C16.4743 12.2683 16.539 11.8859 16.339 11.6155C16.1332 11.3452 15.757 11.2864 15.4806 11.4862ZM16.2686 9.69281C16.0098 9.88688 15.9628 10.2397 16.1451 10.4984C16.3275 10.7572 16.6978 10.8102 16.9507 10.6219C17.2095 10.4338 17.2625 10.075 17.0742 9.81625C16.8859 9.5575 16.5273 9.50469 16.2686 9.69281ZM14.7632 13.2503C14.5045 13.4444 14.4575 13.7972 14.6398 14.0559C14.8221 14.3147 15.1926 14.3677 15.4454 14.1794C15.7042 13.9913 15.7571 13.6325 15.5689 13.3738C15.3748 13.1152 15.0161 13.0622 14.7632 13.2503ZM17.8209 8.02281C17.6386 7.77578 17.3034 7.72875 17.0623 7.90516C16.8153 8.0875 16.7682 8.41672 16.9446 8.66359C17.1211 8.91062 17.4679 8.95766 17.7032 8.78125C17.9443 8.59906 18.0032 8.25813 17.8209 8.02281ZM18.1737 11.5509C17.9209 11.7744 17.909 12.1508 18.1267 12.3977C18.3561 12.6505 18.7382 12.6681 18.9793 12.4506C19.2264 12.2272 19.2498 11.845 19.0264 11.598C18.8087 11.3452 18.4265 11.3275 18.1737 11.5509ZM17.8973 13.3033C17.6445 13.5267 17.6326 13.9031 17.8503 14.15C18.0678 14.4028 18.4559 14.4264 18.7029 14.203C18.95 13.9795 18.9734 13.5973 18.75 13.3503C18.5325 13.0975 18.1501 13.0798 17.8973 13.3033ZM17.6386 15.2555C17.3857 15.4789 17.3681 15.8552 17.5915 16.1022C17.815 16.355 18.1971 16.3786 18.4442 16.1552C18.6912 15.9317 18.7146 15.5495 18.4912 15.3025C18.2678 15.0497 17.8856 15.032 17.6386 15.2555ZM18.4618 9.74578C18.2207 9.9575 18.209 10.3161 18.4148 10.5514C18.6265 10.7925 18.997 10.8102 19.2262 10.5984C19.4614 10.3867 19.479 10.0281 19.2732 9.79281C19.0617 9.5575 18.7029 9.54 18.4618 9.74578ZM18.7559 7.94641C18.5325 8.14641 18.5148 8.48734 18.7089 8.71078C18.9029 8.93422 19.2498 8.95187 19.4732 8.75187C19.6967 8.55188 19.7143 8.21094 19.5143 7.9875C19.3145 7.77 18.9734 7.75234 18.7559 7.94641ZM21.5078 10.5925C21.7312 10.3455 21.7136 9.97516 21.4784 9.7575C21.2373 9.53984 20.8668 9.55172 20.6434 9.79281C20.4259 10.028 20.4434 10.3984 20.6845 10.6219C20.9256 10.8453 21.2961 10.8277 21.5078 10.5925ZM21.7842 12.3859C22.0076 12.1389 21.99 11.7686 21.7548 11.5569C21.5137 11.3275 21.1432 11.3392 20.9198 11.5863C20.7023 11.8214 20.72 12.1919 20.9611 12.4153C21.202 12.6388 21.5725 12.6211 21.7842 12.3859ZM21.0962 13.3503C20.8787 13.5855 20.8962 13.9559 21.1373 14.1794C21.3784 14.3969 21.7489 14.3852 21.9606 14.15C22.184 13.903 22.1664 13.5327 21.9312 13.315C21.6901 13.0975 21.3196 13.1092 21.0962 13.3503ZM21.2432 8.73438C21.449 8.51094 21.4314 8.16406 21.2139 7.96406C20.9904 7.75828 20.6436 7.77 20.4376 7.99344C20.2318 8.21094 20.2495 8.56375 20.4729 8.76375C20.6904 8.96953 21.0373 8.95188 21.2432 8.73438ZM23.0248 8.78141C23.2012 8.54625 23.1542 8.20516 22.919 8.02281C22.6839 7.84641 22.3428 7.89344 22.1604 8.12859C21.984 8.35797 22.0311 8.70484 22.2721 8.88125C22.5075 9.05781 22.8484 9.01656 23.0248 8.78141ZM23.8187 10.6925C24.0068 10.4455 23.954 10.0869 23.707 9.89875C23.46 9.71063 23.1014 9.76359 22.9131 10.0105C22.725 10.2575 22.7778 10.6161 23.0248 10.8042C23.2778 10.9923 23.6306 10.9513 23.8187 10.6925ZM24.6125 12.6153C24.8125 12.3566 24.7595 11.9803 24.4948 11.7803C24.2361 11.5803 23.8656 11.6392 23.6657 11.8978C23.4659 12.1566 23.5246 12.5328 23.7834 12.7269C24.0421 12.9269 24.4126 12.8798 24.6125 12.6153ZM25.23 13.5914C24.9712 13.3914 24.6007 13.4503 24.4009 13.7091C24.2011 13.9678 24.2598 14.3441 24.5186 14.5381C24.7831 14.7322 25.1536 14.6852 25.3536 14.4205C25.5475 14.1677 25.4945 13.7855 25.23 13.5914ZM10.5198 0.3125V2.36422H18.8975V4.24484L16.6748 5.44172V6.80953H23.3428V5.44172L21.1201 4.24484V2.36422H29.4978V0.3125H10.5198Z" fill="#4283F0"/>
</svg>
