<svg width="40" height="40" viewBox="0 0 40 40" fill="none" xmlns="http://www.w3.org/2000/svg">
<g clip-path="url(#clip0_2951_1077)">
<path d="M11.3191 17.1841L7.69133 29.1423V36.2533H9.38053V39.1151H15.3982V36.2533H24.7788V39.1151H30.9735V36.2533H32.5761V29.1423L28.9483 17.1841H11.3191ZM13.8312 19.42H26.4365L28.4793 26.7536H11.7881L13.8312 19.42ZM15.7522 33.0974H10.4425V30.2655H15.7522V33.0974ZM29.2035 33.0974H24.0708V30.2655H29.2035V33.0974Z" fill="#4283F0"/>
<path d="M0 0.88501V38.9381H5.30973V6.19474H34.6903V38.9381H40V0.88501H0Z" fill="#4283F0"/>
<path d="M22.1793 11.1035C22.1793 9.90933 21.0301 8.29712 20.7998 7.98597L20.0949 7.03394L19.3819 7.98013C19.1508 8.28668 17.9982 9.87854 17.9982 11.1035C17.9982 12.2562 18.9361 13.1941 20.0888 13.1941C21.2414 13.1941 22.1793 12.2562 22.1793 11.1035Z" fill="#4283F0"/>
<path d="M27.843 12.8735C27.843 11.6794 26.6938 10.0671 26.4635 9.75599L25.7586 8.80396L25.0457 9.75015C24.8145 10.0567 23.662 11.6486 23.662 12.8735C23.662 14.0263 24.5998 14.9641 25.7526 14.9641C26.9051 14.9641 27.843 14.0263 27.843 12.8735Z" fill="#4283F0"/>
<path d="M16.6926 12.8735C16.6926 11.6794 15.5434 10.0671 15.3131 9.75599L14.6081 8.80396L13.8952 9.75015C13.6641 10.0567 12.5115 11.6486 12.5115 12.8735C12.5115 14.0263 13.4494 14.9641 14.6021 14.9641C15.7547 14.9641 16.6926 14.0263 16.6926 12.8735Z" fill="#4283F0"/>
</g>
<defs>
<clipPath id="clip0_2951_1077">
<rect width="40" height="40" fill="white"/>
</clipPath>
</defs>
</svg>
