<svg width="72" height="72" viewBox="0 0 72 72" fill="none" xmlns="http://www.w3.org/2000/svg">
<g clip-path="url(#clip0_2426_12805)">
<path d="M20.9123 64.5443C20.6662 61.9411 19.8131 59.4496 18.4338 57.3061C17.1037 55.2845 15.3752 53.907 13.5588 53.907C11.7423 53.907 10.008 55.2845 8.6779 57.3061C7.29857 59.4496 6.44541 61.9411 6.19938 64.5443H20.9123ZM66.8439 17.5881C66.5128 17.0371 66.0057 16.6394 65.4207 16.4719C64.8357 16.3044 64.2144 16.3791 63.677 16.6814C63.1397 16.9838 62.7245 17.4923 62.5118 18.1086C62.2991 18.7249 62.304 19.4052 62.5256 20.0179C62.5861 20.1731 62.6586 20.3224 62.7424 20.4643C63.5587 21.8278 64.2645 23.266 64.8517 24.7626C65.0906 25.3508 65.5173 25.8248 66.0526 26.097C66.588 26.3691 67.1958 26.4208 67.7636 26.2426C68.3313 26.0644 68.8205 25.6683 69.1405 25.1277C69.4605 24.587 69.5897 23.9385 69.5041 23.3022C69.4694 23.0827 69.4104 22.8685 69.3283 22.6644C68.6358 20.9039 67.8045 19.2118 66.8439 17.6072V17.5881ZM62.7775 10.522C62.8838 11.2288 62.7505 11.9536 62.4023 12.5613C62.0541 13.169 61.5148 13.6183 60.8849 13.8255L53.6369 16.2361C53.2947 16.354 52.9344 16.3968 52.5768 16.362C52.2193 16.3273 51.8717 16.2156 51.5541 16.0336C51.2365 15.8515 50.9552 15.6027 50.7266 15.3015C50.498 15.0003 50.3266 14.6527 50.2223 14.2789C50.1181 13.905 50.083 13.5124 50.1191 13.1237C50.1553 12.735 50.2619 12.358 50.4329 12.0145C50.6039 11.671 50.8358 11.3678 51.1153 11.1226C51.3947 10.8773 51.716 10.6949 52.0607 10.5858L52.7345 10.3562C49.1168 8.22224 45.1056 6.99779 40.9959 6.77287C36.8862 6.54795 32.7824 7.32827 28.9862 9.05647C25.19 10.7847 21.7978 13.4168 19.0591 16.7595C16.3204 20.1021 14.3048 24.0702 13.1603 28.3722H8.10954C9.29245 23.0803 11.5848 18.1583 14.807 13.9915C18.0293 9.82479 22.094 6.52641 26.6828 4.35468C31.2717 2.18295 36.2601 1.19681 41.2575 1.47349C46.255 1.75017 51.1258 3.28215 55.4884 5.94948L54.8088 4.03628C54.55 3.30223 54.5698 2.48637 54.8637 1.76818C55.1577 1.05 55.7017 0.488314 56.3761 0.206701C57.0506 -0.0749127 57.8002 -0.0533895 58.46 0.266535C59.1199 0.58646 59.636 1.17858 59.8947 1.91263L62.6017 9.62282C62.7021 9.91327 62.7613 10.2186 62.7775 10.5284V10.522ZM39.6095 66.6744C41.4628 66.6675 43.3118 66.4818 45.1349 66.1195C45.7469 66.0953 46.345 66.3221 46.8106 66.7551C47.2763 67.188 47.5756 67.7954 47.6493 68.4571C47.723 69.1188 47.5657 69.7865 47.2085 70.328C46.8514 70.8694 46.3205 71.2452 45.7209 71.3808C44.2919 71.6755 42.8479 71.8757 41.3966 71.9803C40.6291 72.0186 39.6388 71.9803 38.8537 71.9803C36.7022 71.9298 34.5607 71.6456 32.4611 71.1321V65.6859C34.7831 66.3616 37.1766 66.7026 39.5802 66.6999L39.6095 66.6744ZM53.2326 62.848C52.9391 63.0108 52.6789 63.2366 52.4677 63.5117C52.2564 63.7868 52.0985 64.1055 52.0033 64.4487C51.9081 64.792 51.8777 65.1526 51.9138 65.509C51.95 65.8653 52.052 66.2101 52.2137 66.5224C52.3753 66.8348 52.5934 67.1083 52.8547 67.3267C53.116 67.545 53.4151 67.7035 53.7342 67.7928C54.0532 67.882 54.3855 67.9001 54.7112 67.846C55.0368 67.7919 55.349 67.6667 55.6291 67.4779C57.1644 66.5336 58.6263 65.4544 60.0002 64.251C60.4412 63.8603 60.7432 63.3145 60.8542 62.7075C60.9652 62.1005 60.8782 61.4704 60.6082 60.9257C60.3382 60.381 59.9021 59.9559 59.375 59.7236C58.848 59.4912 58.263 59.4663 57.7209 59.6529C57.4345 59.7528 57.1681 59.9108 56.9357 60.1185C55.7708 61.1352 54.5324 62.048 53.2326 62.848ZM62.8537 52.8738C62.684 53.1695 62.5695 53.4986 62.5167 53.8424C62.4639 54.1862 62.4738 54.5379 62.5459 54.8775C62.618 55.2172 62.7509 55.538 62.9369 55.8217C63.1229 56.1055 63.3584 56.3466 63.6301 56.5312C64.1786 56.9042 64.8408 57.0247 65.471 56.8662C66.1012 56.7077 66.6477 56.2833 66.9904 55.6862C67.9267 54.0602 68.7399 52.3539 69.422 50.5844C69.6454 49.9897 69.6634 49.3271 69.4727 48.719C69.282 48.111 68.8955 47.5987 68.3847 47.2767C67.8738 46.9548 67.2732 46.845 66.6937 46.9677C66.1143 47.0904 65.5953 47.4373 65.2326 47.9442C65.1037 48.1259 64.9973 48.3253 64.9162 48.5373C64.3403 50.0405 63.6504 51.4889 62.8537 52.8675V52.8738ZM67.0314 39.0861C66.9911 39.7393 67.1737 40.3858 67.5441 40.9017C67.9145 41.4176 68.4468 41.7667 69.039 41.882C69.6311 41.9973 70.2416 41.8708 70.7534 41.5267C71.2652 41.1826 71.6423 40.6451 71.8127 40.0171C71.8594 39.8447 71.8889 39.6672 71.9006 39.4878C72.0418 37.5777 72.0418 35.6583 71.9006 33.7482C71.874 33.4007 71.7848 33.0622 71.6381 32.7522C71.4914 32.4421 71.29 32.1666 71.0454 31.9413C70.5515 31.4862 69.9117 31.2633 69.2668 31.3217C68.6219 31.38 68.0247 31.7148 67.6065 32.2524C67.1884 32.79 66.9837 33.4864 67.0373 34.1883C67.1574 35.814 67.1574 37.4476 67.0373 39.0733L67.0314 39.0861ZM34.6408 22.3201C34.672 21.6182 34.9501 20.9562 35.4175 20.4714C35.885 19.9867 36.5059 19.7163 37.1515 19.7163C37.7972 19.7163 38.4181 19.9867 38.8855 20.4714C39.353 20.9562 39.6311 21.6182 39.6623 22.3201V38.9585L50.1154 43.9647C50.4306 44.0984 50.7176 44.3001 50.9593 44.5577C51.201 44.8153 51.3923 45.1234 51.5217 45.4636C51.6511 45.8037 51.716 46.1689 51.7124 46.537C51.7088 46.9051 51.6368 47.2687 51.5007 47.6058C51.3646 47.9428 51.1673 48.2464 50.9207 48.4984C50.674 48.7503 50.383 48.9453 50.0653 49.0716C49.7476 49.198 49.4097 49.253 49.0719 49.2335C48.7341 49.214 48.4034 49.1204 48.0998 48.9582L36.2756 43.3015C35.7973 43.1072 35.3848 42.7591 35.0927 42.3034C34.8007 41.8478 34.6431 41.3061 34.6408 40.7505V22.3201ZM7.37711 44.966H19.7404C20.3677 43.5639 20.7644 42.053 20.9123 40.5018H6.18766C6.33291 42.0535 6.72967 43.5649 7.35954 44.966H7.37711ZM1.44743 67.4907C1.26986 67.529 1.08668 67.5241 0.911081 67.4761C0.735484 67.4282 0.571836 67.3385 0.431916 67.2135C0.291996 67.0884 0.179286 66.9312 0.1019 66.7531C0.024513 66.5749 -0.015625 66.3803 -0.015625 66.1833C-0.015625 65.9863 0.024513 65.7917 0.1019 65.6136C0.179286 65.4354 0.291996 65.2782 0.431916 65.1532C0.571836 65.0281 0.735484 64.9384 0.911081 64.8905C1.08668 64.8426 1.26986 64.8376 1.44743 64.876H3.25211C3.46781 61.5664 4.50689 58.383 6.25797 55.6671C7.19454 54.1941 8.41411 52.9603 9.83219 52.0512C8.41604 51.2485 7.18126 50.1137 6.21696 48.7286C4.41088 46.1533 3.37401 43.0371 3.24625 39.8003H1.52946C1.35189 39.8387 1.16871 39.8337 0.993113 39.7858C0.817516 39.7379 0.653867 39.6481 0.513947 39.5231C0.374027 39.3981 0.261317 39.2408 0.183931 39.0627C0.106544 38.8846 0.0664063 38.69 0.0664063 38.493C0.0664063 38.2959 0.106544 38.1013 0.183931 37.9232C0.261317 37.7451 0.374027 37.5878 0.513947 37.4628C0.653867 37.3378 0.817516 37.2481 0.993113 37.2001C1.16871 37.1522 1.35189 37.1473 1.52946 37.1856H25.7404C25.918 37.1473 26.1011 37.1522 26.2767 37.2001C26.4523 37.2481 26.616 37.3378 26.7559 37.4628C26.8958 37.5878 27.0085 37.7451 27.0859 37.9232C27.1633 38.1013 27.2034 38.2959 27.2034 38.493C27.2034 38.69 27.1633 38.8846 27.0859 39.0627C27.0085 39.2408 26.8958 39.3981 26.7559 39.5231C26.616 39.6481 26.4523 39.7379 26.2767 39.7858C26.1011 39.8337 25.918 39.8387 25.7404 39.8003H23.8654C23.7376 43.0371 22.7008 46.1533 20.8947 48.7286C19.9304 50.1137 18.6956 51.2485 17.2795 52.0512C18.6975 52.9603 19.9171 54.1941 20.8537 55.6671C22.6048 58.383 23.6438 61.5664 23.8595 64.876H25.6642C25.8418 64.8376 26.025 64.8426 26.2006 64.8905C26.3762 64.9384 26.5398 65.0281 26.6797 65.1532C26.8197 65.2782 26.9324 65.4354 27.0098 65.6136C27.0871 65.7917 27.1273 65.9863 27.1273 66.1833C27.1273 66.3803 27.0871 66.5749 27.0098 66.7531C26.9324 66.9312 26.8197 67.0884 26.6797 67.2135C26.5398 67.3385 26.3762 67.4282 26.2006 67.4761C26.025 67.5241 25.8418 67.529 25.6642 67.4907H1.44743Z" fill="#4283F0"/>
</g>
<defs>
<clipPath id="clip0_2426_12805">
<rect width="72" height="72" fill="white"/>
</clipPath>
</defs>
</svg>
